# xmcd
#
# Track frame offsets:
#  150
#  25867
#  49630
#  67202
#  93605
#  105515
#  125187
#  141772
#  160822
#  177557
#  198537
#  226280
#  250577
#
# Disc length: 3669 seconds
#
# Revision: 0
# Processed by: cddbd v1.5.1PL2 Copyright (c) Steve Scherf et al.
# Submitted via: Collectorz.com_Music_Collector 6.9
#
DISCID=b90e530d
DTITLE=Bott, Ken - The Blues From Bottsville
DYEAR=1999
DGENRE=
TTITLE0=Burnt Out
TTITLE1=3/4 Blues
TTITLE2=Hit and Run
TTITLE3=Nothin' 'bout The Blues
TTITLE4=Bottsville Boogie
TTITLE5=Old Fool In Love
TTITLE6=Couch Potato
TTITLE7=Net Surfer
TTITLE8=Dancin' Lil
TTITLE9=Dont'cha Know
TTITLE10=Been There Done That
TTITLE11=Half Fast Boogie
TTITLE12=Bonus Track (Untitled)
EXTD=
EXTT0=
EXTT1=
EXTT2=
EXTT3=
EXTT4=
EXTT5=
EXTT6=
EXTT7=
EXTT8=
EXTT9=
EXTT10=
EXTT11=
EXTT12=
PLAYORDER=
